<svg width="206" height="34" viewBox="0 0 206 34" fill="none" xmlns="http://www.w3.org/2000/svg">
<path d="M29.12 33H22.68L22.2 22.16C22.0667 19.5733 22 17.2667 22 15.24C22 13.6933 22.04 12.2267 22.12 10.84L17.84 30.08H11.64L7.08001 10.84C7.24001 13.16 7.32001 15.3467 7.32001 17.4C7.32001 18.9467 7.28001 20.56 7.20001 22.24L6.72001 33H0.320007L2.40001 5.28H10.68L14.84 24.08L18.72 5.28H27.04L29.12 33Z" fill="black"/>
<path d="M50.4053 26.84C50.4053 27.64 50.512 28.2267 50.7253 28.6C50.9653 28.9733 51.3387 29.2533 51.8453 29.44L50.5253 33.56C49.2187 33.4533 48.152 33.1733 47.3253 32.72C46.4987 32.24 45.8587 31.4933 45.4053 30.48C44.0187 32.6133 41.8853 33.68 39.0053 33.68C36.8987 33.68 35.2187 33.0667 33.9653 31.84C32.712 30.6133 32.0853 29.0133 32.0853 27.04C32.0853 24.72 32.9387 22.9467 34.6453 21.72C36.352 20.4933 38.8187 19.88 42.0453 19.88H44.2053V18.96C44.2053 17.7067 43.9387 16.8533 43.4053 16.4C42.872 15.92 41.9387 15.68 40.6053 15.68C39.912 15.68 39.072 15.7867 38.0853 16C37.0987 16.1867 36.0853 16.4533 35.0453 16.8L33.6053 12.64C34.9387 12.1333 36.2987 11.7467 37.6853 11.48C39.0987 11.2133 40.4053 11.08 41.6053 11.08C44.6453 11.08 46.872 11.7067 48.2853 12.96C49.6987 14.2133 50.4053 16.0933 50.4053 18.6V26.84ZM40.8453 29.16C42.2853 29.16 43.4053 28.48 44.2053 27.12V23.36H42.6453C41.2053 23.36 40.1253 23.6133 39.4053 24.12C38.712 24.6267 38.3653 25.4133 38.3653 26.48C38.3653 27.3333 38.5787 28 39.0053 28.48C39.4587 28.9333 40.072 29.16 40.8453 29.16Z" fill="black"/>
<path d="M67.5594 11.16C68.3327 11.16 69.0394 11.2533 69.6794 11.44L68.6794 17.56C67.8794 17.3733 67.2394 17.28 66.7594 17.28C65.5061 17.28 64.546 17.72 63.8794 18.6C63.2394 19.4533 62.7327 20.7467 62.3594 22.48V33H56.0394V11.76H61.5594L62.0794 15.88C62.5594 14.4133 63.2794 13.2667 64.2394 12.44C65.2261 11.5867 66.3327 11.16 67.5594 11.16Z" fill="black"/>
<path d="M80.6831 11.08C82.1498 11.08 83.4698 11.2933 84.6431 11.72C85.8165 12.1467 86.9231 12.8 87.9631 13.68L85.2431 17.44C83.9098 16.4267 82.5631 15.92 81.2031 15.92C79.7898 15.92 78.7231 16.44 78.0031 17.48C77.2831 18.52 76.9231 20.2 76.9231 22.52C76.9231 24.76 77.2831 26.3467 78.0031 27.28C78.7231 28.2133 79.7631 28.68 81.1231 28.68C81.8431 28.68 82.4965 28.5733 83.0831 28.36C83.6698 28.12 84.3765 27.7467 85.2031 27.24L87.9631 31.16C85.8565 32.84 83.4698 33.68 80.8031 33.68C78.6431 33.68 76.7765 33.2267 75.2031 32.32C73.6298 31.3867 72.4165 30.0933 71.5631 28.44C70.7098 26.76 70.2831 24.8 70.2831 22.56C70.2831 20.32 70.7098 18.3333 71.5631 16.6C72.4165 14.8667 73.6298 13.52 75.2031 12.56C76.7765 11.5733 78.6031 11.08 80.6831 11.08Z" fill="black"/>
<path d="M99.6425 11.08C102.896 11.08 105.443 12.08 107.283 14.08C109.123 16.0533 110.043 18.8267 110.043 22.4C110.043 24.6667 109.616 26.6533 108.763 28.36C107.936 30.04 106.736 31.3467 105.163 32.28C103.616 33.2133 101.776 33.68 99.6425 33.68C96.4158 33.68 93.8692 32.6933 92.0025 30.72C90.1625 28.72 89.2425 25.9333 89.2425 22.36C89.2425 20.0933 89.6558 18.12 90.4825 16.44C91.3358 14.7333 92.5358 13.4133 94.0825 12.48C95.6558 11.5467 97.5092 11.08 99.6425 11.08ZM99.6425 15.72C98.3625 15.72 97.4025 16.2667 96.7625 17.36C96.1225 18.4267 95.8025 20.0933 95.8025 22.36C95.8025 24.68 96.1092 26.3733 96.7225 27.44C97.3625 28.5067 98.3358 29.04 99.6425 29.04C100.923 29.04 101.883 28.5067 102.523 27.44C103.163 26.3467 103.483 24.6667 103.483 22.4C103.483 20.08 103.163 18.3867 102.523 17.32C101.909 16.2533 100.949 15.72 99.6425 15.72Z" fill="black"/>
<path d="M121.882 11.08C123.402 11.08 124.829 11.3067 126.162 11.76C127.495 12.2133 128.669 12.8533 129.682 13.68L127.362 17.24C125.629 16.1467 123.882 15.6 122.122 15.6C121.295 15.6 120.655 15.7467 120.202 16.04C119.775 16.3067 119.562 16.6933 119.562 17.2C119.562 17.6 119.655 17.9333 119.842 18.2C120.055 18.44 120.469 18.6933 121.082 18.96C121.695 19.2267 122.642 19.5467 123.922 19.92C126.135 20.56 127.775 21.4 128.842 22.44C129.935 23.4533 130.482 24.8667 130.482 26.68C130.482 28.12 130.069 29.3733 129.242 30.44C128.415 31.48 127.282 32.28 125.842 32.84C124.402 33.4 122.802 33.68 121.042 33.68C119.255 33.68 117.589 33.4 116.042 32.84C114.522 32.28 113.229 31.5067 112.162 30.52L115.242 27.08C117.029 28.4667 118.909 29.16 120.882 29.16C121.842 29.16 122.589 28.9867 123.122 28.64C123.682 28.2933 123.962 27.8 123.962 27.16C123.962 26.6533 123.855 26.2533 123.642 25.96C123.429 25.6667 123.015 25.4 122.402 25.16C121.789 24.8933 120.815 24.5733 119.482 24.2C117.375 23.5867 115.802 22.7333 114.762 21.64C113.722 20.5467 113.202 19.1867 113.202 17.56C113.202 16.3333 113.549 15.24 114.242 14.28C114.962 13.2933 115.975 12.52 117.282 11.96C118.615 11.3733 120.149 11.08 121.882 11.08Z" fill="black"/>
<path d="M144.55 33V5.28H161.07L160.39 9.96H151.11V17.32H159.19V22H151.11V33H144.55Z" fill="black"/>
<path d="M169.67 11.76V33H163.35V11.76H169.67ZM166.47 0.559998C167.564 0.559998 168.457 0.906665 169.15 1.6C169.87 2.26666 170.23 3.12 170.23 4.16C170.23 5.2 169.87 6.06666 169.15 6.76C168.457 7.42666 167.564 7.76 166.47 7.76C165.377 7.76 164.484 7.42666 163.79 6.76C163.097 6.06666 162.75 5.2 162.75 4.16C162.75 3.12 163.097 2.26666 163.79 1.6C164.484 0.906665 165.377 0.559998 166.47 0.559998Z" fill="black"/>
<path d="M187.679 11.08C189.519 11.08 190.959 11.64 191.999 12.76C193.039 13.88 193.559 15.4533 193.559 17.48V33H187.239V18.56C187.239 17.4933 187.066 16.76 186.719 16.36C186.399 15.9333 185.906 15.72 185.239 15.72C183.959 15.72 182.733 16.64 181.559 18.48V33H175.239V11.76H180.759L181.199 14.28C182.106 13.2133 183.079 12.4133 184.119 11.88C185.186 11.3467 186.373 11.08 187.679 11.08Z" fill="black"/>
<path d="M205.245 11.76V33H198.925V11.76H205.245ZM202.045 0.559998C203.139 0.559998 204.032 0.906665 204.725 1.6C205.445 2.26666 205.805 3.12 205.805 4.16C205.805 5.2 205.445 6.06666 204.725 6.76C204.032 7.42666 203.139 7.76 202.045 7.76C200.952 7.76 200.059 7.42666 199.365 6.76C198.672 6.06666 198.325 5.2 198.325 4.16C198.325 3.12 198.672 2.26666 199.365 1.6C200.059 0.906665 200.952 0.559998 202.045 0.559998Z" fill="black"/>
</svg>
